<?xml version="1.0" encoding="UTF-8" standalone="no"?>
<svg
   width="200"
   height="200"
   fill="currentColor"
   class="bi bi-cart3"
   viewBox="0 0 200 200"
   version="1.1"
   id="svg688"
   sodipodi:docname="carrito.svg"
   inkscape:version="1.1 (c68e22c387, 2021-05-23)"
   xmlns:inkscape="http://www.inkscape.org/namespaces/inkscape"
   xmlns:sodipodi="http://sodipodi.sourceforge.net/DTD/sodipodi-0.dtd"
   xmlns:xlink="http://www.w3.org/1999/xlink"
   xmlns="http://www.w3.org/2000/svg"
   xmlns:svg="http://www.w3.org/2000/svg">
  <defs
     id="defs692">
    <linearGradient
       id="linearGradient1011"
       inkscape:swatch="solid">
      <stop
         style="stop-color:#1a1a25;stop-opacity:1;"
         offset="0"
         id="stop1009" />
    </linearGradient>
    <linearGradient
       inkscape:collect="always"
       xlink:href="#linearGradient1011"
       id="linearGradient1013"
       x1="0"
       y1="100"
       x2="200"
       y2="100"
       gradientUnits="userSpaceOnUse"
       gradientTransform="matrix(0.975,0,0,0.975,2.5,2.5)" />
  </defs>
  <sodipodi:namedview
     id="namedview690"
     pagecolor="#505050"
     bordercolor="#eeeeee"
     borderopacity="1"
     inkscape:pageshadow="0"
     inkscape:pageopacity="0"
     inkscape:pagecheckerboard="0"
     showgrid="false"
     inkscape:zoom="0.95169365"
     inkscape:cx="-43.08109"
     inkscape:cy="13.134479"
     inkscape:window-width="1855"
     inkscape:window-height="1057"
     inkscape:window-x="57"
     inkscape:window-y="-8"
     inkscape:window-maximized="1"
     inkscape:current-layer="svg688" />
  <circle
     style="fill:url(#linearGradient1013);fill-opacity:1;stroke-width:0.992404"
     id="path32"
     cx="100"
     cy="100"
     r="97.5" />
  <path
     id="path796"
     style="fill:#92257c;stroke-width:14.7807"
     d="M 100,0 A 100,100 0 0 0 0,100.00001 100,100 0 0 0 100,200 100,100 0 0 0 200,100.00001 100,100 0 0 0 100,0 Z M 34.109377,39.39063 h 13.078127 a 4.3618448,4.3618448 0 0 1 4.234377,3.312499 l 3.531248,14.140626 H 156.23438 a 4.3618448,4.3618448 0 0 1 4.28126,5.203125 l -8.73438,43.625 a 4.3618448,4.3618448 0 0 1 -4.04688,3.5 l -81.984379,4.10938 2.515632,13.34375 h 74.890617 a 4.3618448,4.3618448 0 0 1 0,8.71875 h -8.73437 a 17.453124,17.453124 0 0 1 0,34.90624 17.453124,17.453124 0 1 1 0,-34.90624 H 73.359377 a 17.453124,17.453124 0 0 1 0,34.90624 17.453124,17.453124 0 1 1 0,-34.90624 h -8.718752 a 4.3618448,4.3618448 0 0 1 -4.281248,-3.54688 L 47.281257,62.14063 43.79688,48.10938 h -9.687503 a 4.3618448,4.3618448 0 0 1 -4.359376,-4.359375 4.3618448,4.3618448 0 0 1 4.359376,-4.359375 z m 22.703128,26.171875 7.32812,39.078125 79.765625,-4.01563 7.01563,-35.062495 z m 16.546872,78.515625 a 8.7236897,8.7236897 0 0 0 0,17.43751 8.7236897,8.7236897 0 1 0 0,-17.43751 z m 61.062503,0 a 8.7236897,8.7236897 0 0 0 0,17.43751 8.7236897,8.7236897 0 1 0 0,-17.43751 z" />
</svg>
