<?xml version="1.0" encoding="UTF-8" standalone="no"?>
<svg
   viewBox="0 0 200.04463 200"
   version="1.1"
   id="svg1742"
   sodipodi:docname="instagram.svg"
   width="200.04463"
   height="200"
   inkscape:version="1.1 (c68e22c387, 2021-05-23)"
   xmlns:inkscape="http://www.inkscape.org/namespaces/inkscape"
   xmlns:sodipodi="http://sodipodi.sourceforge.net/DTD/sodipodi-0.dtd"
   xmlns="http://www.w3.org/2000/svg"
   xmlns:svg="http://www.w3.org/2000/svg">
  <defs
     id="defs1746" />
  <sodipodi:namedview
     id="namedview1744"
     pagecolor="#505050"
     bordercolor="#eeeeee"
     borderopacity="1"
     inkscape:pageshadow="0"
     inkscape:pageopacity="0"
     inkscape:pagecheckerboard="0"
     showgrid="false"
     inkscape:zoom="0.42578125"
     inkscape:cx="103.33945"
     inkscape:cy="78.678899"
     inkscape:window-width="1855"
     inkscape:window-height="1057"
     inkscape:window-x="57"
     inkscape:window-y="-8"
     inkscape:window-maximized="1"
     inkscape:current-layer="svg1742" />
  <!--! Font Awesome Pro 6.2.0 by @fontawesome - https://fontawesome.com License - https://fontawesome.com/license (Commercial License) Copyright 2022 Fonticons, Inc. -->
  <path
     d="m 100.04463,48.722526 c -28.383356,0 -51.277476,22.894124 -51.277476,51.277474 0,28.38335 22.89412,51.27747 51.277476,51.27747 28.38335,0 51.27747,-22.89412 51.27747,-51.27747 0,-28.38335 -22.89412,-51.277474 -51.27747,-51.277474 z m 0,84.614524 c -18.342075,0 -33.337054,-14.95035 -33.337054,-33.33705 0,-18.3867 14.950351,-33.337052 33.337054,-33.337052 18.3867,0 33.33705,14.950352 33.33705,33.337052 0,18.3867 -14.99498,33.33705 -33.33705,33.33705 z M 165.3799,46.625014 c 0,6.649559 -5.35535,11.960281 -11.96029,11.960281 -6.64956,0 -11.96028,-5.35535 -11.96028,-11.960281 0,-6.604931 5.35535,-11.960281 11.96028,-11.960281 6.60494,0 11.96029,5.35535 11.96029,11.960281 z m 33.96184,12.138793 C 198.58306,42.742385 194.92357,28.550708 183.18643,16.858195 171.49392,5.1656813 157.30224,1.5061923 141.28082,0.70289025 c -16.51233,-0.937187 -66.004685,-0.937187 -82.517013,0 C 42.787013,1.4615643 28.595336,5.1210533 16.858195,16.813567 5.1210532,28.506081 1.5061921,42.697757 0.70288966,58.719179 c -0.93718621,16.512331 -0.93718621,66.004681 0,82.517011 0.75867454,16.02142 4.41816354,30.2131 16.15530534,41.90562 11.737141,11.69251 25.88419,15.352 41.905612,16.1553 16.512328,0.93719 66.004683,0.93719 82.517013,0 16.02142,-0.75867 30.2131,-4.41816 41.90561,-16.1553 11.69252,-11.69252 15.35201,-25.8842 16.15531,-41.90562 0.93718,-16.51233 0.93718,-65.96005 0,-82.472383 z M 178.0096,158.95348 c -3.48098,8.74707 -10.2198,15.48588 -19.0115,19.01149 -13.16523,5.22146 -44.40477,4.01651 -58.95347,4.01651 -14.548702,0 -45.832871,1.16033 -58.953477,-4.01651 C 32.344081,174.48399 25.605266,167.74517 22.079661,158.95348 16.858195,145.78824 18.063148,114.5487 18.063148,100 c 0,-14.5487 -1.160325,-45.832868 4.016513,-58.953475 3.480977,-8.747072 10.219792,-15.485887 19.011492,-19.011492 13.165234,-5.221466 44.404775,-4.016512 58.953477,-4.016512 14.5487,0 45.83287,-1.160326 58.95347,4.016512 8.74707,3.480977 15.48589,10.219792 19.0115,19.011492 5.22146,13.165234 4.01651,44.404775 4.01651,58.953475 0,14.5487 1.20495,45.83287 -4.01651,58.95348 z"
     id="path1740"
     style="stroke-width:0.446279" />
</svg>
