<?xml version="1.0" encoding="UTF-8" standalone="no"?>
<svg
   viewBox="0 0 246.24937 200"
   version="1.1"
   id="svg834"
   sodipodi:docname="twitter.svg"
   width="246.24937"
   height="200"
   inkscape:version="1.1 (c68e22c387, 2021-05-23)"
   xmlns:inkscape="http://www.inkscape.org/namespaces/inkscape"
   xmlns:sodipodi="http://sodipodi.sourceforge.net/DTD/sodipodi-0.dtd"
   xmlns="http://www.w3.org/2000/svg"
   xmlns:svg="http://www.w3.org/2000/svg">
  <defs
     id="defs838" />
  <sodipodi:namedview
     id="namedview836"
     pagecolor="#505050"
     bordercolor="#eeeeee"
     borderopacity="1"
     inkscape:pageshadow="0"
     inkscape:pageopacity="0"
     inkscape:pagecheckerboard="0"
     showgrid="false"
     inkscape:zoom="1.6582031"
     inkscape:cx="255.69847"
     inkscape:cy="207.75501"
     inkscape:window-width="1855"
     inkscape:window-height="1057"
     inkscape:window-x="57"
     inkscape:window-y="-8"
     inkscape:window-maximized="1"
     inkscape:current-layer="svg834" />
  <!--! Font Awesome Pro 6.2.0 by @fontawesome - https://fontawesome.com License - https://fontawesome.com/license (Commercial License) Copyright 2022 Fonticons, Inc. -->
  <path
     d="m 220.93754,49.843569 c 0.15631,2.187391 0.15631,4.375273 0.15631,6.562673 C 221.09385,123.12469 170.31291,200 77.500084,200 48.906187,200 22.343854,191.71839 2.8948242e-6,177.34401 4.0626525,177.81246 7.9685105,177.96876 12.187471,177.96876 c 23.59338,0 45.312468,-7.9685 62.656283,-21.56228 -22.18754,-0.46894 -40.781365,-15.00011 -47.187722,-35.00027 3.125264,0.46846 6.250046,0.78109 9.531619,0.78109 4.531102,0 9.062688,-0.62526 13.281168,-1.71847 C 27.34389,115.78093 9.9995955,95.468662 9.9995955,70.937412 v -0.624759 c 6.7184975,3.75002 14.5316535,6.09373 22.8123035,6.405869 -13.593788,-9.06268 -22.499682,-24.531241 -22.499682,-42.031373 0,-9.374826 2.499537,-17.96858 6.87481,-25.4686342 24.84387,30.6249812 62.187829,50.6246452 104.062413,52.8125272 -0.78108,-3.750031 -1.25002,-7.65589 -1.25002,-11.562227 0,-27.812823 22.50016,-50.46881675 50.46883,-50.46881675 14.53117,0 27.65604,6.09373445 36.87502,15.93749575 11.4059,-2.187394 22.34337,-6.4063563 32.03131,-12.1874693 -3.75052,11.7190163 -11.71902,21.5627773 -22.18755,27.8123423 10.15639,-1.093217 20.00015,-3.906338 29.06234,-7.812197 -6.87384,9.999592 -15.46808,18.905486 -25.31183,26.093399 z"
     id="path832"
     style="stroke-width:0.480959" />
</svg>
