<?xml version="1.0" encoding="UTF-8" standalone="no"?>
<svg
   viewBox="0 0 284.44479 200"
   version="1.1"
   id="svg934"
   sodipodi:docname="youtube.svg"
   width="284.44479"
   height="200"
   inkscape:version="1.1 (c68e22c387, 2021-05-23)"
   xmlns:inkscape="http://www.inkscape.org/namespaces/inkscape"
   xmlns:sodipodi="http://sodipodi.sourceforge.net/DTD/sodipodi-0.dtd"
   xmlns="http://www.w3.org/2000/svg"
   xmlns:svg="http://www.w3.org/2000/svg">
  <defs
     id="defs938" />
  <sodipodi:namedview
     id="namedview936"
     pagecolor="#505050"
     bordercolor="#eeeeee"
     borderopacity="1"
     inkscape:pageshadow="0"
     inkscape:pageopacity="0"
     inkscape:pagecheckerboard="0"
     showgrid="false"
     inkscape:zoom="1.703125"
     inkscape:cx="273.02752"
     inkscape:cy="192.29358"
     inkscape:window-width="1855"
     inkscape:window-height="1057"
     inkscape:window-x="57"
     inkscape:window-y="-8"
     inkscape:window-maximized="1"
     inkscape:current-layer="svg934" />
  <!--! Font Awesome Pro 6.2.0 by @fontawesome - https://fontawesome.com License - https://fontawesome.com/license (Commercial License) Copyright 2022 Fonticons, Inc. -->
  <path
     d="M 278.50104,31.293229 C 275.22969,18.975521 265.59115,9.274479 253.35313,5.982292 231.17083,0 142.2224,0 142.2224,0 142.2224,0 53.274479,0 31.091667,5.982292 18.853646,9.275 9.215104,18.975521 5.94375,31.293229 0,53.61979 0,100.20208 0,100.20208 c 0,0 0,46.5823 5.94375,68.90886 3.271354,12.31771 12.909896,21.61458 25.147917,24.90677 C 53.274479,200 142.2224,200 142.2224,200 c 0,0 88.94791,0 111.13073,-5.98229 12.23802,-3.29219 21.87656,-12.58906 25.14791,-24.90677 5.94375,-22.32657 5.94375,-68.90886 5.94375,-68.90886 0,0 0,-46.58229 -5.94375,-68.908851 z M 113.13125,142.49531 V 57.90885 l 74.34323,42.29428 z"
     id="path932"
     style="stroke-width:0.520833" />
</svg>
