<?xml version="1.0" encoding="UTF-8" standalone="no"?>
<svg
   height="250"
   width="250"
   version="1.1"
   id="svg19"
   sodipodi:docname="productos-cervezas.svg"
   inkscape:version="1.1 (c68e22c387, 2021-05-23)"
   xmlns:inkscape="http://www.inkscape.org/namespaces/inkscape"
   xmlns:sodipodi="http://sodipodi.sourceforge.net/DTD/sodipodi-0.dtd"
   xmlns="http://www.w3.org/2000/svg"
   xmlns:svg="http://www.w3.org/2000/svg">
  <defs
     id="defs23" />
  <sodipodi:namedview
     id="namedview21"
     pagecolor="#505050"
     bordercolor="#eeeeee"
     borderopacity="1"
     inkscape:pageshadow="0"
     inkscape:pageopacity="0"
     inkscape:pagecheckerboard="0"
     showgrid="false"
     inkscape:zoom="1.1054688"
     inkscape:cx="461.79505"
     inkscape:cy="302.58657"
     inkscape:window-width="1855"
     inkscape:window-height="1057"
     inkscape:window-x="57"
     inkscape:window-y="-8"
     inkscape:window-maximized="1"
     inkscape:current-layer="svg19" />
  <path
     id="path127"
     style="fill:#92257c;fill-opacity:1;fill-rule:evenodd;stroke-width:0.416667"
     d="M 125,0 A 125,125 0 0 0 0,125 125,125 0 0 0 125,250 125,125 0 0 0 250,125 125,125 0 0 0 125,0 Z m -17.56673,41.666667 c 5.1237,0 9.9182,0.8784 14.38314,2.635091 4.46493,1.7567 8.52771,4.098542 12.1875,7.026367 1.46391,-0.292775 2.85402,-0.548642 4.17155,-0.768225 1.31752,-0.219592 2.78097,-0.328775 4.39127,-0.328775 9.66185,0 17.93406,3.440242 24.81445,10.320633 6.8804,6.8804 10.32065,15.150992 10.32065,24.812825 0,3.220617 -0.6584,6.44085 -1.97591,9.661459 -1.31753,3.220616 -3.00261,5.855788 -5.05209,7.905278 h 20.20345 c 3.65979,0 6.7692,1.28092 9.33105,3.84277 2.56185,2.56185 3.84278,5.67289 3.84278,9.33268 v 61.48438 c 0,3.65978 -1.28093,6.77083 -3.84278,9.33268 -2.56185,2.56185 -5.67126,3.84277 -9.33105,3.84277 h -24.15527 v 17.56673 H 74.495442 v -77.29491 c -7.61235,-2.04949 -14.272825,-5.92811 -19.982092,-11.63738 -5.709267,-5.70927 -8.564458,-12.66308 -8.564458,-20.860998 0,-7.75875 2.232658,-14.639225 6.697591,-20.641275 C 57.111425,71.896717 62.85765,67.72475 69.884442,65.382492 73.25145,58.3557 78.264325,52.646958 84.925133,48.255208 91.585942,43.863467 99.088958,41.666667 107.43327,41.666667 Z m 0,13.175458 c -5.1237,0 -10.027387,1.316775 -14.711912,3.951825 -4.684525,2.635042 -8.124766,6.295283 -10.320641,10.979817 l -3.074542,6.588541 -7.026367,2.415367 c -3.806183,1.317517 -6.953083,3.915217 -9.441733,7.794592 -2.488658,3.879375 -3.733725,7.868816 -3.733725,11.967775 0,5.562878 2.268508,10.246558 6.806642,14.052728 4.538133,3.80618 9.588491,5.70964 15.151366,5.70964 4.684534,0 8.929834,-1.28093 12.736,-3.84278 3.806184,-2.56185 7.686432,-6.25795 11.639002,-11.08886 3.36701,-4.09897 7.3923,-7.759212 12.07682,-10.97982 4.68453,-3.220617 10.10156,-4.830725 16.25,-4.830725 h 30.74219 c 0,-6.587617 -1.93931,-12.260508 -5.81869,-17.018233 -3.87937,-4.757717 -9.26055,-7.135417 -16.14095,-7.135417 -2.63504,0 -5.23275,0.402533 -7.79459,1.207683 l -3.84277,1.207684 -4.17155,-3.514 c -2.63505,-2.342259 -5.6369,-4.172384 -9.00391,-5.489909 -3.367,-1.317516 -6.80724,-1.975908 -10.32064,-1.975908 z m 26.35091,45.893555 c -4.09896,0 -7.53921,1.13425 -10.32064,3.40332 -2.78143,2.26907 -5.92833,5.38012 -9.44173,9.33268 -3.80618,4.24535 -7.97976,7.97893 -12.5179,11.19955 -4.538135,3.2206 -9.148485,5.41578 -13.83301,6.58691 v 63.89974 h 65.87565 v -94.4222 z m 32.93783,15.3711 v 61.48437 h 24.15527 v -61.48437 z" />
</svg>
