<?xml version="1.0" encoding="UTF-8" standalone="no"?>
<svg
   height="250"
   width="250"
   version="1.1"
   id="svg1315"
   sodipodi:docname="productos-01-hamburguesas.svg"
   inkscape:version="1.1 (c68e22c387, 2021-05-23)"
   xmlns:inkscape="http://www.inkscape.org/namespaces/inkscape"
   xmlns:sodipodi="http://sodipodi.sourceforge.net/DTD/sodipodi-0.dtd"
   xmlns="http://www.w3.org/2000/svg"
   xmlns:svg="http://www.w3.org/2000/svg">
  <defs
     id="defs1319" />
  <sodipodi:namedview
     id="namedview1317"
     pagecolor="#505050"
     bordercolor="#eeeeee"
     borderopacity="1"
     inkscape:pageshadow="0"
     inkscape:pageopacity="0"
     inkscape:pagecheckerboard="0"
     showgrid="false"
     inkscape:zoom="0.80286083"
     inkscape:cx="-22.419826"
     inkscape:cy="297.06269"
     inkscape:window-width="1855"
     inkscape:window-height="1057"
     inkscape:window-x="57"
     inkscape:window-y="-8"
     inkscape:window-maximized="1"
     inkscape:current-layer="svg1315" />
  <path
     id="path1343"
     style="fill:#92257c;stroke-width:0.5"
     d="M 125,0 A 125,125 0 0 0 0,125 125,125 0 0 0 125,250 125,125 0 0 0 250,125 125,125 0 0 0 125,0 Z m 0,42.679688 c 26.50789,0 47.08723,4.64021 61.73633,13.917968 14.64909,9.277759 21.97265,21.519409 21.97265,36.726563 v 8.371091 H 41.29102 v -8.371091 c 0,-15.207154 7.32551,-27.448804 21.9746,-36.726563 C 77.91472,47.319898 98.49211,42.679688 125,42.679688 Z m 0,12.55664 c -20.64824,0 -37.56386,3.244968 -50.74805,9.732422 -13.18418,6.487455 -19.8468,14.543375 -19.98633,24.169922 H 195.73438 C 195.31583,79.512125 188.58374,71.456205 175.53906,64.96875 162.49439,58.481296 145.64824,55.236328 125,55.236328 Z M 69.75195,116.76367 c 7.53382,0 12.52137,1.53418 14.96289,4.60352 2.44152,3.06934 6.52207,4.60351 12.24219,4.60351 5.72012,0 9.94156,-1.53417 12.66211,-4.60351 2.72055,-3.06934 7.84704,-4.60352 15.38086,-4.60352 7.53382,0 12.66031,1.53418 15.38086,4.60352 2.72055,3.06934 6.94199,4.60351 12.66211,4.60351 5.72012,0 9.80067,-1.53417 12.24219,-4.60351 2.44152,-3.06934 7.42907,-4.60352 14.96289,-4.60352 7.53382,0 13.0096,1.53418 16.42773,4.60352 3.41812,3.06934 7.4292,4.60351 12.0332,4.60351 v 12.55664 c -7.53382,0 -12.72979,-1.53418 -15.58984,-4.60351 -2.86007,-3.06934 -7.15097,-4.60352 -12.87109,-4.60352 -5.72012,0 -9.80066,1.53418 -12.24219,4.60352 -2.44151,3.06933 -7.42907,4.60351 -14.96289,4.60351 -7.53383,0 -12.66227,-1.53418 -15.38281,-4.60351 -2.72055,-3.06934 -6.94004,-4.60352 -12.66016,-4.60352 -5.72012,0 -9.93961,1.53418 -12.66016,4.60352 -2.72054,3.06933 -7.84898,4.60351 -15.38281,4.60351 -7.53382,0 -12.52138,-1.53418 -14.96289,-4.60351 -2.44153,-3.06934 -6.52207,-4.60352 -12.24219,-4.60352 -5.72012,0 -10.01102,1.53418 -12.87109,4.60352 -2.86005,3.06933 -8.05602,4.60351 -15.58984,4.60351 V 125.9707 c 4.604,0 8.61508,-1.53417 12.0332,-4.60351 3.41813,-3.06934 8.89391,-4.60352 16.42773,-4.60352 z m -28.46093,37.25 h 167.41796 v 26.78711 c 0,3.34836 -1.25629,6.27779 -3.76757,8.78906 -2.51128,2.51128 -5.44071,3.76758 -8.78907,3.76758 H 53.84766 c -3.34836,0 -6.27779,-1.2563 -8.78907,-3.76758 -2.51128,-2.51127 -3.76757,-5.4407 -3.76757,-8.78906 z m 12.55664,12.55664 v 14.23047 h 142.30468 v -14.23047 z" />
</svg>
