<?xml version="1.0" encoding="UTF-8" standalone="no"?>
<svg
   height="250"
   width="250"
   version="1.1"
   id="svg1065"
   sodipodi:docname="productos-picadas.svg"
   inkscape:version="1.1 (c68e22c387, 2021-05-23)"
   xmlns:inkscape="http://www.inkscape.org/namespaces/inkscape"
   xmlns:sodipodi="http://sodipodi.sourceforge.net/DTD/sodipodi-0.dtd"
   xmlns="http://www.w3.org/2000/svg"
   xmlns:svg="http://www.w3.org/2000/svg">
  <defs
     id="defs1069" />
  <sodipodi:namedview
     id="namedview1067"
     pagecolor="#505050"
     bordercolor="#eeeeee"
     borderopacity="1"
     inkscape:pageshadow="0"
     inkscape:pageopacity="0"
     inkscape:pagecheckerboard="0"
     showgrid="false"
     inkscape:zoom="0.80286083"
     inkscape:cx="521.88373"
     inkscape:cy="381.75981"
     inkscape:window-width="1855"
     inkscape:window-height="1057"
     inkscape:window-x="57"
     inkscape:window-y="-8"
     inkscape:window-maximized="1"
     inkscape:current-layer="svg1065" />
  <path
     id="path1093"
     style="fill:#92257c;stroke-width:0.5"
     d="M 125,0 A 125,125 0 0 0 0,125 125,125 0 0 0 125,250 125,125 0 0 0 250,125 125,125 0 0 0 125,0 Z M 81.25,37.5 h 7.95508 v 9.94336 h 9.94336 c 5.03787,0 9.27959,1.72491 12.72656,5.17187 3.44698,3.44697 5.16992,7.68868 5.16992,12.72656 0,4.9053 -1.72294,9.1137 -5.16992,12.62696 -3.44697,3.51326 -7.68869,5.27148 -12.72656,5.27148 h -9.94336 v 11.93164 h 27.83984 v 35.79492 H 89.20508 v 11.93164 h 9.94336 c 5.03787,0 9.27959,1.72296 12.72656,5.16993 3.44698,3.44697 5.16992,7.69063 5.16992,12.72851 0,4.9053 -1.72294,9.1137 -5.16992,12.62695 -3.44697,3.51326 -7.68869,5.26954 -12.72656,5.26954 H 89.20508 V 212.5 H 81.25 v -33.80664 h -9.94336 c -4.9053,0 -9.11369,-1.75628 -12.62695,-5.26954 -3.51326,-3.51325 -5.27149,-7.78829 -5.27149,-12.82617 0,-4.9053 1.75823,-9.08232 5.27149,-12.52929 3.51326,-3.44697 7.72165,-5.16993 12.62695,-5.16993 H 81.25 V 130.96679 H 53.4082 V 95.17187 H 81.25 V 83.24023 h -9.94336 c -4.9053,0 -9.11369,-1.75822 -12.62695,-5.27148 -3.51326,-3.51326 -5.27149,-7.7883 -5.27149,-12.82618 0,-4.9053 1.75823,-9.08037 5.27149,-12.52734 3.51326,-3.44696 7.72165,-5.17187 12.62695,-5.17187 H 81.25 Z m 79.54492,0 H 168.75 v 9.94336 h 9.94336 c 5.03787,0 9.27959,1.72491 12.72656,5.17187 3.44697,3.44697 5.17188,7.68868 5.17188,12.72656 0,4.9053 -1.72491,9.1137 -5.17188,12.62696 -3.44697,3.51326 -7.68869,5.27148 -12.72656,5.27148 H 168.75 v 11.93164 h 27.8418 v 35.79492 H 168.75 v 11.93164 h 9.94336 c 5.03787,0 9.27959,1.72296 12.72656,5.16993 3.44697,3.44697 5.17188,7.69063 5.17188,12.72851 0,4.9053 -1.72491,9.1137 -5.17188,12.62695 -3.44697,3.51326 -7.68869,5.26954 -12.72656,5.26954 H 168.75 V 212.5 h -7.95508 v -33.80664 h -9.94336 c -4.9053,0 -9.11369,-1.75628 -12.62695,-5.26954 -3.51326,-3.51325 -5.26953,-7.78829 -5.26953,-12.82617 0,-4.9053 1.75627,-9.08232 5.26953,-12.52929 3.51326,-3.44697 7.72165,-5.16993 12.62695,-5.16993 h 9.94336 V 130.96679 H 132.95508 V 95.17187 h 27.83984 V 83.24023 h -9.94336 c -4.9053,0 -9.11369,-1.75822 -12.62695,-5.27148 -3.51326,-3.51326 -5.26953,-7.7883 -5.26953,-12.82618 0,-4.9053 1.75627,-9.08037 5.26953,-12.52734 3.51326,-3.44696 7.72165,-5.17187 12.62695,-5.17187 h 9.94336 z M 71.30664,59.375 c -1.59091,0 -2.9826,0.5645 -4.17578,1.6914 -1.19318,1.1269 -1.78906,2.48526 -1.78906,4.07617 0,1.72349 0.59588,3.18182 1.78906,4.375 1.19318,1.19318 2.58487,1.78907 4.17578,1.78907 h 27.8418 c 1.72349,0 3.14851,-0.59589 4.27539,-1.78907 1.1269,-1.19318 1.68945,-2.58486 1.68945,-4.17578 0,-1.72348 -0.56255,-3.14849 -1.68945,-4.27539 -1.12688,-1.1269 -2.5519,-1.6914 -4.27539,-1.6914 z m 79.54492,0 c -1.59091,0 -2.9826,0.5645 -4.17578,1.6914 -1.19318,1.1269 -1.78906,2.48526 -1.78906,4.07617 0,1.72349 0.59588,3.18182 1.78906,4.375 1.19318,1.19318 2.58487,1.78907 4.17578,1.78907 h 27.8418 c 1.72348,0 3.14849,-0.59589 4.27539,-1.78907 1.12689,-1.19318 1.68945,-2.58486 1.68945,-4.17578 0,-1.72348 -0.56256,-3.14849 -1.68945,-4.27539 -1.1269,-1.1269 -2.55191,-1.6914 -4.27539,-1.6914 z M 65.3418,107.10351 v 11.93164 h 39.77148 v -11.93164 z m 79.54492,0 v 11.93164 h 39.77148 v -11.93164 z m -73.58008,47.72656 c -1.59091,0 -2.9826,0.56452 -4.17578,1.69141 -1.19318,1.12689 -1.78906,2.48526 -1.78906,4.07617 0,1.72348 0.59588,3.18182 1.78906,4.375 1.19318,1.19318 2.58487,1.78907 4.17578,1.78907 h 27.8418 c 1.72349,0 3.14851,-0.59589 4.27539,-1.78907 1.1269,-1.19318 1.68945,-2.58487 1.68945,-4.17578 0,-1.72348 -0.56255,-3.1485 -1.68945,-4.27539 -1.12688,-1.12689 -2.5519,-1.69141 -4.27539,-1.69141 z m 79.54492,0 c -1.59091,0 -2.9826,0.56452 -4.17578,1.69141 -1.19318,1.12689 -1.78906,2.48526 -1.78906,4.07617 0,1.72348 0.59588,3.18182 1.78906,4.375 1.19318,1.19318 2.58487,1.78907 4.17578,1.78907 h 27.8418 c 1.72348,0 3.14849,-0.59589 4.27539,-1.78907 1.12689,-1.19318 1.68945,-2.58487 1.68945,-4.17578 0,-1.72348 -0.56256,-3.1485 -1.68945,-4.27539 -1.1269,-1.12689 -2.55191,-1.69141 -4.27539,-1.69141 z" />
</svg>
