<?xml version="1.0" encoding="UTF-8" standalone="no"?>
<svg
   height="250"
   width="250"
   version="1.1"
   id="svg1190"
   sodipodi:docname="productos-salsas.svg"
   inkscape:version="1.1 (c68e22c387, 2021-05-23)"
   xmlns:inkscape="http://www.inkscape.org/namespaces/inkscape"
   xmlns:sodipodi="http://sodipodi.sourceforge.net/DTD/sodipodi-0.dtd"
   xmlns="http://www.w3.org/2000/svg"
   xmlns:svg="http://www.w3.org/2000/svg">
  <defs
     id="defs1194" />
  <sodipodi:namedview
     id="namedview1192"
     pagecolor="#505050"
     bordercolor="#eeeeee"
     borderopacity="1"
     inkscape:pageshadow="0"
     inkscape:pageopacity="0"
     inkscape:pagecheckerboard="0"
     showgrid="false"
     inkscape:zoom="1.1354167"
     inkscape:cx="221.94495"
     inkscape:cy="185.3945"
     inkscape:window-width="1855"
     inkscape:window-height="1057"
     inkscape:window-x="57"
     inkscape:window-y="-8"
     inkscape:window-maximized="1"
     inkscape:current-layer="svg1190" />
  <path
     id="path1218"
     style="fill:#92257c;stroke-width:0.5"
     d="M 125,0 A 125,125 0 0 0 0,125 125,125 0 0 0 125,250 125,125 0 0 0 250,125 125,125 0 0 0 125,0 Z m 50.65821,47.71875 c 5.92503,0 10.94855,2.05988 15.07031,6.18164 4.12176,4.12176 6.18164,9.14529 6.18164,15.07031 0,1.15925 -0.0646,2.67335 -0.19336,4.54102 -0.1288,1.86767 -0.32051,3.50893 -0.57812,4.92578 l -11.40039,-1.54492 0.29101,-3.28516 c 0.19321,-2.18968 0.28906,-3.73508 0.28906,-4.63672 0,-2.70489 -0.9331,-4.9917 -2.80078,-6.85937 -1.86767,-1.86767 -4.15447,-2.80078 -6.85937,-2.80078 -2.5761,0 -4.76704,0.83725 -6.57032,2.51172 -1.80327,1.67446 -2.83223,3.73434 -3.08984,6.18164 l -8.88867,85.97851 c -1.41686,13.65334 -7.05071,25.11667 -16.9043,34.39063 -9.85358,9.27396 -21.47927,13.91016 -34.875,13.91016 -12.8805,0 -24.34383,-4.41124 -34.39062,-13.23438 -10.0468,-8.82314 -15.97213,-19.60963 -17.77539,-32.36133 -0.25762,-1.80327 0.16101,-3.34867 1.25586,-4.63672 1.09484,-1.28805 2.60893,-1.93359 4.54101,-1.93359 h 86.94336 l 8.69336,-83.6582 c 0.64402,-5.28101 2.96408,-9.7255 6.95703,-13.33203 3.99296,-3.60654 8.69371,-5.40821 14.10352,-5.40821 z M 68.42774,86.35938 h 9.66015 c -1.03044,1.80327 -1.73858,3.67144 -2.125,5.603512 -0.38641,1.932076 -0.58007,3.606583 -0.58007,5.023438 0,4.37937 1.28913,9.01557 3.86523,13.91016 2.5761,4.89459 3.86328,9.59534 3.86328,14.10351 0,2.5761 -0.22496,4.76704 -0.67578,6.57031 -0.45082,1.80328 -1.12766,3.47778 -2.0293,5.02344 H 70.7461 c 0.90163,-1.54566 1.57848,-3.22016 2.02929,-5.02344 0.45082,-1.80327 0.67579,-3.99421 0.67579,-6.57031 0,-4.50817 -1.28719,-9.36933 -3.86329,-14.58594 -2.5761,-5.2166 -3.86523,-9.69238 -3.86523,-13.42773 0,-1.416855 0.12911,-3.060062 0.38672,-4.927734 0.25761,-1.867666 1.03031,-3.767136 2.31836,-5.699216 z m 25.11719,0 h 9.66015 c -1.03044,1.80327 -1.73858,3.67144 -2.125,5.603512 -0.38641,1.932076 -0.58008,3.606583 -0.58008,5.023438 0,4.37937 1.28914,9.01557 3.86524,13.91016 2.5761,4.89459 3.86328,9.59534 3.86328,14.10351 0,2.5761 -0.22496,4.76704 -0.67578,6.57031 -0.45082,1.80328 -1.12767,3.47778 -2.0293,5.02344 h -9.66015 c 0.90164,-1.54566 1.57848,-3.22016 2.02929,-5.02344 0.45082,-1.80327 0.67578,-3.99421 0.67578,-6.57031 0,-4.50817 -1.28913,-9.36933 -3.86523,-14.58594 -2.5761,-5.2166 -3.86328,-9.69238 -3.86328,-13.42773 0,-1.416855 0.12911,-3.060062 0.38672,-4.927734 0.25761,-1.867666 1.03031,-3.767136 2.31836,-5.699216 z m 25.11718,0 h 9.66016 c -1.03044,1.80327 -1.73859,3.67144 -2.125,5.603512 -0.38642,1.932076 -0.58008,3.606583 -0.58008,5.023438 0,4.37937 1.28718,9.01557 3.86328,13.91016 2.5761,4.89459 3.86524,9.59534 3.86524,14.10351 0,2.5761 -0.22497,4.76704 -0.67578,6.57031 -0.45082,1.80328 -1.12767,3.47778 -2.0293,5.02344 h -9.66016 c 0.90164,-1.54566 1.57848,-3.22016 2.0293,-5.02344 0.45082,-1.80327 0.67578,-3.99421 0.67578,-6.57031 0,-4.50817 -1.28913,-9.36933 -3.86523,-14.58594 -2.5761,-5.2166 -3.86328,-9.69238 -3.86328,-13.42773 0,-1.416855 0.1291,-3.060062 0.38671,-4.927734 0.25761,-1.867666 1.03031,-3.767136 2.31836,-5.699216 z m -52.35937,75.35156 c 3.34893,9.27396 8.59741,16.42192 15.74609,21.44531 7.14868,5.0234 14.90893,7.53516 23.28125,7.53516 8.37233,0 16.03672,-2.51176 22.99219,-7.53516 6.95547,-5.02339 12.1081,-12.17135 15.45703,-21.44531 z" />
</svg>
