<?xml version="1.0" encoding="UTF-8" standalone="no"?>
<svg
   width="200"
   height="200"
   fill="currentColor"
   class="bi bi-joystick"
   viewBox="0 0 200 200"
   version="1.1"
   id="svg838"
   sodipodi:docname="arcades.svg"
   inkscape:version="1.1 (c68e22c387, 2021-05-23)"
   xmlns:inkscape="http://www.inkscape.org/namespaces/inkscape"
   xmlns:sodipodi="http://sodipodi.sourceforge.net/DTD/sodipodi-0.dtd"
   xmlns="http://www.w3.org/2000/svg"
   xmlns:svg="http://www.w3.org/2000/svg">
  <defs
     id="defs842" />
  <sodipodi:namedview
     id="namedview840"
     pagecolor="#505050"
     bordercolor="#eeeeee"
     borderopacity="1"
     inkscape:pageshadow="0"
     inkscape:pageopacity="0"
     inkscape:pagecheckerboard="0"
     showgrid="false"
     inkscape:zoom="2.3450534"
     inkscape:cx="115.98883"
     inkscape:cy="143.0671"
     inkscape:window-width="1855"
     inkscape:window-height="1057"
     inkscape:window-x="57"
     inkscape:window-y="-8"
     inkscape:window-maximized="1"
     inkscape:current-layer="svg838" />
  <path
     id="path946"
     style="fill:#92257c;stroke-width:30.4957"
     d="M 100 0 A 100 100 0 0 0 0 100 A 100 100 0 0 0 100 200 A 100 100 0 0 0 200 100 A 100 100 0 0 0 100 0 z M 99.123047 32.371094 A 17.16643 17.16643 0 0 1 117.16602 49.511719 A 17.16643 17.16643 0 0 1 104.29102 66.136719 L 104.29102 109.80078 C 111.69833 110.51319 117.16602 113.0357 117.16602 116.03125 C 117.16602 119.5847 109.48445 122.46875 100 122.46875 C 90.515548 122.46875 82.833984 119.5847 82.833984 116.03125 C 82.833984 113.02712 88.30167 110.51319 95.708984 109.80078 L 95.708984 66.136719 A 17.16643 17.16643 0 0 1 99.123047 32.371094 z M 112.875 89.982422 L 167.36133 113.32812 C 168.15099 113.67146 168.66602 114.44441 168.66602 115.30273 L 168.66602 130.03906 A 8.5832148 8.5832148 0 0 1 163.91992 137.71289 L 107.67383 165.83984 A 17.16643 17.16643 0 0 1 92.326172 165.83984 L 36.080078 137.71289 A 8.5832148 8.5832148 0 0 1 31.333984 130.03906 L 31.333984 115.30273 A 2.1458037 2.1458037 0 0 1 32.638672 113.32812 L 87.013672 90.023438 L 87.125 98.503906 L 42.259766 117.19922 A 1.0729019 1.0729019 0 0 0 42.251953 119.17383 L 93.236328 141.02539 A 17.16643 17.16643 0 0 0 106.76367 141.02539 L 157.74805 119.17383 A 1.0729019 1.0729019 0 0 0 157.74023 117.19922 L 112.875 98.503906 L 112.875 89.982422 z " />
</svg>
