<?xml version="1.0" encoding="UTF-8" standalone="no"?>
<svg
   width="200"
   height="200"
   fill="currentColor"
   class="bi bi-joystick"
   viewBox="0 0 200 200"
   version="1.1"
   id="svg838"
   sodipodi:docname="pedir.svg"
   inkscape:version="1.1 (c68e22c387, 2021-05-23)"
   xmlns:inkscape="http://www.inkscape.org/namespaces/inkscape"
   xmlns:sodipodi="http://sodipodi.sourceforge.net/DTD/sodipodi-0.dtd"
   xmlns="http://www.w3.org/2000/svg"
   xmlns:svg="http://www.w3.org/2000/svg">
  <defs
     id="defs842" />
  <sodipodi:namedview
     id="namedview840"
     pagecolor="#505050"
     bordercolor="#eeeeee"
     borderopacity="1"
     inkscape:pageshadow="0"
     inkscape:pageopacity="0"
     inkscape:pagecheckerboard="0"
     showgrid="false"
     inkscape:zoom="2.3450534"
     inkscape:cx="115.98883"
     inkscape:cy="143.0671"
     inkscape:window-width="1855"
     inkscape:window-height="1057"
     inkscape:window-x="57"
     inkscape:window-y="-8"
     inkscape:window-maximized="1"
     inkscape:current-layer="svg838" />
  <path
     id="path1343"
     style="fill:#92257c;stroke-width:0.4"
     d="M 100,-2e-6 A 100,100 0 0 0 3.5e-6,99.999998 100,100 0 0 0 100,200 100,100 0 0 0 200,99.999998 100,100 0 0 0 100,-2e-6 Z m 0,34.14375 c 21.20631,0 37.66978,3.71217 49.38906,11.13437 11.71928,7.42221 17.57812,17.21553 17.57812,29.38126 v 6.69687 H 33.03282 v -6.69687 c 0,-12.16573 5.860408,-21.95905 17.57968,-29.38126 11.71928,-7.4222 28.181192,-11.13437 49.3875,-11.13437 z m 0,10.04531 c -16.518588,0 -30.051084,2.59598 -40.598436,7.78594 -10.547344,5.18996 -15.87744,11.6347 -15.989064,19.33594 h 113.175 c -0.33484,-7.70124 -5.72051,-14.14598 -16.15625,-19.33594 C 129.99551,46.785038 116.51859,44.189058 100,44.189058 Z m -44.198436,49.22188 c 6.027056,0 10.017096,1.22734 11.970312,3.68281 1.953216,2.45547 5.217656,3.682812 9.793752,3.682812 4.576096,0 7.953248,-1.227342 10.129688,-3.682812 2.17644,-2.45547 6.277632,-3.68281 12.304684,-3.68281 6.02706,0 10.12825,1.22734 12.30469,3.68281 2.17644,2.45547 5.55359,3.682812 10.12969,3.682812 4.57609,0 7.84053,-1.227342 9.79375,-3.682812 1.95321,-2.45547 5.94325,-3.68281 11.97031,-3.68281 6.02706,0 10.40768,1.22734 13.14218,3.68281 2.7345,2.45547 5.94337,3.682812 9.62657,3.682812 v 10.04531 c -6.02705,0 -10.18383,-1.22734 -12.47187,-3.68281 -2.28805,-2.45547 -5.72078,-3.68281 -10.29688,-3.68281 -4.5761,0 -7.84053,1.22734 -9.79375,3.68281 -1.95321,2.45547 -5.94326,3.68281 -11.97031,3.68281 -6.02707,0 -10.12982,-1.22734 -12.30625,-3.68281 -2.17644,-2.45547 -5.55203,-3.68281 -10.12813,-3.68281 -4.576092,0 -7.951684,1.22734 -10.128124,3.68281 -2.176432,2.45547 -6.279184,3.68281 -12.306248,3.68281 -6.027056,0 -10.017104,-1.22734 -11.970312,-3.68281 -1.953224,-2.45547 -5.217656,-3.68281 -9.793752,-3.68281 -4.576096,0 -8.008816,1.22734 -10.296872,3.68281 -2.28804,2.45547 -6.444816,3.68281 -12.471872,3.68281 v -10.04531 c 3.6832,0 6.892064,-1.227342 9.62656,-3.682812 2.734504,-2.45547 7.115128,-3.68281 13.142184,-3.68281 z M 33.03282,123.21094 h 133.93437 v 21.42968 c 0,2.67869 -1.00503,5.02224 -3.01405,7.03125 -2.00903,2.00903 -4.35257,3.01407 -7.03126,3.01407 H 43.078132 c -2.678688,0 -5.022232,-1.00504 -7.031256,-3.01407 -2.009024,-2.00901 -3.014056,-4.35256 -3.014056,-7.03125 z m 10.045312,10.04531 v 11.38437 H 156.92187 v -11.38437 z" />
</svg>
