<?xml version="1.0" encoding="UTF-8" standalone="no"?>
<svg
   width="200"
   height="200"
   fill="currentColor"
   class="bi bi-balloon-heart"
   viewBox="0 0 200 200"
   version="1.1"
   id="svg834"
   sodipodi:docname="balloon-heart.svg"
   inkscape:version="1.1 (c68e22c387, 2021-05-23)"
   xmlns:inkscape="http://www.inkscape.org/namespaces/inkscape"
   xmlns:sodipodi="http://sodipodi.sourceforge.net/DTD/sodipodi-0.dtd"
   xmlns="http://www.w3.org/2000/svg"
   xmlns:svg="http://www.w3.org/2000/svg">
  <defs
     id="defs838" />
  <sodipodi:namedview
     id="namedview836"
     pagecolor="#505050"
     bordercolor="#eeeeee"
     borderopacity="1"
     inkscape:pageshadow="0"
     inkscape:pageopacity="0"
     inkscape:pagecheckerboard="0"
     showgrid="false"
     inkscape:zoom="2.3450534"
     inkscape:cx="67.802295"
     inkscape:cy="110.65846"
     inkscape:window-width="1855"
     inkscape:window-height="1057"
     inkscape:window-x="57"
     inkscape:window-y="-8"
     inkscape:window-maximized="1"
     inkscape:current-layer="svg834" />
  <path
     id="path942"
     style="fill:#92257c;stroke-width:24.798"
     d="M 100,0 A 100,100 0 0 0 0,100 100,100 0 0 0 100,200 100,100 0 0 0 200,100 100,100 0 0 0 100,0 Z M 76.333984,30.080078 c 7.995924,0.07163 15.952747,2.763843 22.333985,8.539063 0.455938,0.408425 0.902216,0.836885 1.337891,1.285156 0.43567,-0.448271 0.88195,-0.876731 1.33789,-1.285156 34.0434,-30.801169 112.83977,26.138075 3.61719,100.242189 l 2.38086,4.66211 a 2.537654,2.4949764 0 0 1 -4.53907,2.23242 l -0.082,-0.16992 c 0.0811,1.09578 0.20276,2.01205 0.375,2.88867 0.54713,2.68962 1.63205,4.86198 4.2461,9.99219 2.918,5.75779 2.38051,11.45497 0.76953,16.22656 -1.59072,4.67197 -4.27513,8.63695 -5.95703,11.10742 l -0.041,0.0703 a 2.5347517,2.492123 0 1 1 -4.214842,-2.76953 c 1.702169,-2.51031 4.052842,-5.97767 5.400392,-9.99218 1.34755,-3.94478 1.65188,-8.20832 -0.4961,-12.41211 l -0.13281,-0.2793 c -2.43167,-4.78155 -3.850088,-7.54978 -4.539061,-10.97656 a 32.189252,31.647903 0 0 1 -0.527343,-4.48243 l -0.404297,0.79688 a 2.5332878,2.4906837 0 1 1 -4.529297,-2.23242 l 2.380859,-4.66211 H 95.03125 C 6.287907,78.643644 41.684983,29.76967 76.333984,30.080078 Z m 0.558594,10.021484 c -9.750334,-0.392236 -19.934004,4.597676 -24.791016,13.917969 -3.546187,6.823674 -4.570034,17.004029 2.390626,30.501953 6.595909,12.8305 20.376633,28.439926 45.503906,45.593746 25.117146,-17.16378 38.895916,-32.773207 45.501956,-45.593746 6.96066,-13.497924 5.94694,-23.678474 2.39062,-30.492187 -7.77122,-14.92243 -29.17978,-18.747022 -40.6289,-7.181641 L 99.996094,54.1875 92.730469,46.847656 c -4.29342,-4.337018 -9.98769,-6.510751 -15.837891,-6.746094 z m -2.208984,9.984376 c 1.774993,-0.104753 3.535776,0.06735 5.179687,0.515624 2.229032,0.607655 1.347074,3.237649 -0.851562,3.964844 -7.416598,2.440584 -11.64182,9.912255 -13.769531,16.855469 -0.739635,2.400738 -4.29528,2.858357 -4.933594,0.427734 -1.671774,-6.435173 -0.51674,-10.728743 0.810547,-13.298828 2.788823,-5.34189 8.239472,-8.150587 13.564453,-8.464843 z" />
</svg>
