<?xml version="1.0" encoding="UTF-8" standalone="no"?>
<svg
   width="200"
   height="200"
   fill="currentColor"
   class="bi bi-shop-window"
   viewBox="0 0 200 200"
   version="1.1"
   id="svg1049"
   sodipodi:docname="shop-window.svg"
   inkscape:version="1.1 (c68e22c387, 2021-05-23)"
   xmlns:inkscape="http://www.inkscape.org/namespaces/inkscape"
   xmlns:sodipodi="http://sodipodi.sourceforge.net/DTD/sodipodi-0.dtd"
   xmlns="http://www.w3.org/2000/svg"
   xmlns:svg="http://www.w3.org/2000/svg">
  <defs
     id="defs1053" />
  <sodipodi:namedview
     id="namedview1051"
     pagecolor="#505050"
     bordercolor="#eeeeee"
     borderopacity="1"
     inkscape:pageshadow="0"
     inkscape:pageopacity="0"
     inkscape:pagecheckerboard="0"
     showgrid="false"
     inkscape:zoom="1.703125"
     inkscape:cx="34.642202"
     inkscape:cy="198.16514"
     inkscape:window-width="1855"
     inkscape:window-height="1057"
     inkscape:window-x="57"
     inkscape:window-y="-8"
     inkscape:window-maximized="1"
     inkscape:current-layer="svg1049" />
  <path
     id="path1134"
     style="fill:#92257c;stroke-width:35.3904"
     d="M 100,0 A 100,100 0 0 0 0,100 100,100 0 0 0 100,200 100,100 0 0 0 200,100 100,100 0 0 0 100,0 Z M 66.257812,34.734375 H 133.74219 A 7.9021403,7.9021403 0 0 1 139.74805,37.5 l 20.61718,24.054688 a 11.853211,11.853211 0 0 1 2.85157,7.710937 V 71.28125 A 18.767584,18.767584 0 0 1 129.63281,82.802734 18.735975,18.735975 0 0 1 114.81641,90.048828 18.728073,18.728073 0 0 1 100,82.802734 18.728073,18.728073 0 0 1 85.183594,90.048828 18.728073,18.728073 0 0 1 70.367188,82.802734 18.767584,18.767584 0 0 1 36.783203,71.28125 v -2.015625 a 11.853211,11.853211 0 0 1 2.851563,-7.710937 L 60.251953,37.5 a 7.9021403,7.9021403 0 0 1 0.0039,-0.0039 l 0.0039,-0.0039 a 7.9021403,7.9021403 0 0 1 5.998046,-2.757813 z m 0,7.902344 -20.625,24.060547 a 3.9510703,3.9510703 0 0 0 -0.947265,2.568359 v 2.015625 a 10.865443,10.865443 0 0 0 21.730469,0 3.9511715,3.9511715 0 0 1 7.902343,0 10.865443,10.865443 0 0 0 21.730469,0 3.951172,3.951172 0 0 1 7.902342,0 10.865444,10.865444 0 0 0 21.73047,0 3.9511715,3.9511715 0 0 1 7.90234,0 10.865444,10.865444 0 1 0 21.73047,0 v -2.015625 a 3.9510703,3.9510703 0 0 0 -0.94726,-2.568359 l -20.625,-24.060547 z M 48.636719,94 a 3.9510703,3.9510703 0 0 1 3.951172,3.951172 V 145.36328 H 147.41211 V 97.951172 a 3.951172,3.951172 0 0 1 7.90234,0 v 47.412108 h 3.95118 a 3.951172,3.951172 0 0 1 0,7.90235 H 40.734375 a 3.951172,3.951172 0 0 1 0,-7.90235 h 3.951172 V 97.951172 A 3.9510703,3.9510703 0 0 1 48.636719,94 Z m 15.802734,3.951172 a 3.9510703,3.9510703 0 0 1 3.951172,3.951168 v 27.65821 h 63.218755 v -27.65821 a 3.9510703,3.9510703 0 0 1 7.90039,0 v 27.65821 a 7.9021403,7.9021403 0 0 1 -7.90039,7.90039 H 68.390625 a 7.9021403,7.9021403 0 0 1 -7.900391,-7.90039 v -27.65821 a 3.9510703,3.9510703 0 0 1 3.949219,-3.951168 z" />
</svg>
