<?xml version="1.0" encoding="UTF-8" standalone="no"?>
<!-- Created with Inkscape (http://www.inkscape.org/) -->

<svg
   width="79.375mm"
   height="11.482208mm"
   viewBox="0 0 79.374999 11.482208"
   version="1.1"
   id="svg870"
   inkscape:version="1.1 (c68e22c387, 2021-05-23)"
   sodipodi:docname="burgamer-logo.svg"
   xmlns:inkscape="http://www.inkscape.org/namespaces/inkscape"
   xmlns:sodipodi="http://sodipodi.sourceforge.net/DTD/sodipodi-0.dtd"
   xmlns="http://www.w3.org/2000/svg"
   xmlns:svg="http://www.w3.org/2000/svg">
  <sodipodi:namedview
     id="namedview872"
     pagecolor="#505050"
     bordercolor="#eeeeee"
     borderopacity="1"
     inkscape:pageshadow="0"
     inkscape:pageopacity="0"
     inkscape:pagecheckerboard="0"
     inkscape:document-units="mm"
     showgrid="false"
     inkscape:zoom="1.0985947"
     inkscape:cx="188.42254"
     inkscape:cy="-12.288426"
     inkscape:window-width="1855"
     inkscape:window-height="1057"
     inkscape:window-x="57"
     inkscape:window-y="-8"
     inkscape:window-maximized="1"
     inkscape:current-layer="layer1" />
  <defs
     id="defs867" />
  <g
     inkscape:label="Layer 1"
     inkscape:groupmode="layer"
     id="layer1"
     transform="translate(-20.738044,-74.23138)">
    <g
       transform="matrix(0.95513888,0,0,0.95513888,28.379156,80.927623)"
       id="4nh7VPW7EwTdVQreirzh2">
      <path
         style="opacity:1;fill:#92257c;fill-rule:nonzero;stroke:#00b6d1;stroke-width:0;stroke-linecap:butt;stroke-linejoin:miter;stroke-miterlimit:4;stroke-dasharray:none;stroke-dashoffset:0"
         vector-effect="non-scaling-stroke"
         transform="translate(-8,-1)"
         d="M 0,0 H 16 V 2 H 0 Z"
         stroke-linecap="round"
         id="path753" />
    </g>
    <g
       transform="matrix(1.0270311,0,0,1.0270311,28.379156,76.624363)"
       id="y45yZb6jM8JnPA4eKUGhg">
      <path
         style="opacity:1;fill:#92257c;fill-rule:nonzero;stroke:#00b6d1;stroke-width:0;stroke-linecap:butt;stroke-linejoin:miter;stroke-miterlimit:4;stroke-dasharray:none;stroke-dashoffset:0"
         vector-effect="non-scaling-stroke"
         transform="translate(-6.51,-2.33)"
         d="M 13.02,4.65 H 0 V 2.79 H 0.93 V 1.86 H 1.86 V 0.93 H 2.79 V 0 h 7.44 v 0.93 h 0.93 v 0.93 h 0.93 v 0.93 h 0.93 z"
         stroke-linecap="round"
         id="path756" />
    </g>
    <g
       transform="matrix(1.0270311,0,0,1.0270311,28.379156,84.275744)"
       id="1E_i-k4_vgawzGPnQYU8A">
      <path
         style="opacity:1;fill:#92257c;fill-rule:nonzero;stroke:#00b6d1;stroke-width:0;stroke-linecap:butt;stroke-linejoin:miter;stroke-miterlimit:4;stroke-dasharray:none;stroke-dashoffset:0"
         vector-effect="non-scaling-stroke"
         transform="translate(-6.51,-1.39)"
         d="m 11.2158,2.79 h -9.3 V 1.86 H 0.93 V 0.93 H 0 V 0 h 13.02 v 0.93 h -0.93 v 0.93 h -0.8742 z"
         stroke-linecap="round"
         id="path759" />
    </g>
    <g
       transform="matrix(2.8140651,0,0,2.8140651,69.552832,79.972484)"
       id="odfK8GiELgdwKzMfKU2ip">
      <path
         style="opacity:1;fill:#92257c;fill-rule:nonzero;stroke:none;stroke-width:1;stroke-linecap:butt;stroke-linejoin:miter;stroke-miterlimit:4;stroke-dasharray:none;stroke-dashoffset:0"
         vector-effect="non-scaling-stroke"
         d="m -9.05985,1.5 h -1.79996 v -3 h 1.79996 v 0.6 h 0.59999 v 1.8 h -0.59999 z m -1.19997,-2.4 v 0.6 h 1.17598 v -0.6 z m 0,1.2 v 0.6 h 1.17598 V 0.3 Z m 3.95993,1.2 H -7.49986 V 0.9 h -0.59999 v -2.4 h 0.59999 v 2.4 h 1.19997 z M -5.6999,0.9 h -0.59999 v -2.4 h 0.59999 z m 0.95999,0.6 H -5.3399 v -3 h 1.79996 v 0.6 h 0.59999 v 0.6 h -0.59999 v 1.2 h 0.59999 V 1.5 H -3.53994 V 0.9 H -4.13993 V 0.3 h -0.59999 z m 0,-2.4 v 0.6 h 1.17598 v -0.6 z m 4.55992,0 h -1.79996 v -0.6 h 1.79996 z m -1.79997,1.8 h -0.59999 v -1.8 h 0.59999 z m 1.79997,0 H -0.77998 V 0.3 H -1.37997 V -0.3 H -0.18 Z M -0.77998,1.5 H -1.97995 V 0.9 h 1.19997 z m 1.55996,0 H 0.17999 v -2.4 h 0.59999 v -0.6 h 1.19997 v 0.6 H 2.57994 V 1.5 H 1.97995 V 0.3 H 0.77998 Z m 0,-2.376 V -0.3 H 1.97995 V -0.876 Z M 3.53995,1.5 H 2.93996 v -3 h 0.59999 v 0.6 h 0.59999 v 0.6 H 4.73993 V 0.3 H 4.13994 V -0.3 H 3.53995 Z m 2.39994,0 H 5.3399 V -0.3 H 4.73991 V -0.9 H 5.3399 v -0.6 h 0.59999 z m 2.15996,0 H 6.29989 v -3 h 1.79996 v 0.6 H 6.89988 v 0.6 H 8.09985 V 0.3 H 6.89988 v 0.6 h 1.19997 z m 0.96,0 H 8.45986 v -3 h 1.79996 v 0.6 h 0.59999 v 0.6 h -0.59999 v 1.2 h 0.59999 V 1.5 H 10.25982 V 0.9 H 9.65983 V 0.3 H 9.05984 Z m 0,-2.4 v 0.6 h 1.17598 v -0.6 z"
         stroke-linecap="round"
         id="path762" />
    </g>
  </g>
</svg>
