<?xml version="1.0" encoding="UTF-8" standalone="no"?>
<svg
   width="200"
   height="200"
   fill="currentColor"
   class="bi bi-arrow-bar-up"
   viewBox="0 0 200 200"
   version="1.1"
   id="svg1031"
   sodipodi:docname="volver-arriba.svg"
   inkscape:version="1.1 (c68e22c387, 2021-05-23)"
   xmlns:inkscape="http://www.inkscape.org/namespaces/inkscape"
   xmlns:sodipodi="http://sodipodi.sourceforge.net/DTD/sodipodi-0.dtd"
   xmlns="http://www.w3.org/2000/svg"
   xmlns:svg="http://www.w3.org/2000/svg">
  <defs
     id="defs1035" />
  <sodipodi:namedview
     id="namedview1033"
     pagecolor="#505050"
     bordercolor="#eeeeee"
     borderopacity="1"
     inkscape:pageshadow="0"
     inkscape:pageopacity="0"
     inkscape:pagecheckerboard="0"
     showgrid="false"
     inkscape:zoom="2.4085825"
     inkscape:cx="73.902389"
     inkscape:cy="80.337709"
     inkscape:window-width="1855"
     inkscape:window-height="1057"
     inkscape:window-x="57"
     inkscape:window-y="-8"
     inkscape:window-maximized="1"
     inkscape:current-layer="svg1031" />
  <circle
     style="fill:#1a1a25;fill-opacity:1;stroke-width:0.953635"
     id="path1221"
     cx="100"
     cy="100"
     r="97.5" />
  <path
     id="path1116"
     style="fill:#92257c;stroke-width:54.7988"
     d="M 100,0 A 100,100 0 0 0 0,100 100,100 0 0 0 100,200 100,100 0 0 0 200,100 100,100 0 0 0 100,0 Z m -1.378906,30.947266 a 5.3190797,5.3190797 0 0 1 5.146486,1.380859 l 31.91406,31.914063 a 5.3260885,5.3260885 0 0 1 -7.5332,7.53125 L 105.32031,48.933594 V 110.56055 A 5.3190797,5.3190797 0 0 1 100,115.88086 5.3190797,5.3190797 0 0 1 94.681641,110.56055 V 48.933594 L 71.851562,71.773438 a 5.3257987,5.3257987 0 1 1 -7.53125,-7.53125 L 96.234375,32.328125 a 5.3190797,5.3190797 0 0 1 2.386719,-1.380859 z M 30.853516,137.15625 H 169.14844 a 5.319336,5.319336 0 0 1 0,10.63867 H 30.853516 a 5.3190797,5.3190797 0 0 1 -5.320313,-5.32031 5.3190797,5.3190797 0 0 1 5.320313,-5.31836 z" />
</svg>
