<?xml version="1.0" encoding="UTF-8" standalone="no"?>
<svg
   width="200"
   height="200"
   fill="currentColor"
   class="bi bi-telephone"
   viewBox="0 0 200 200"
   version="1.1"
   id="svg835"
   sodipodi:docname="telephone.svg"
   inkscape:version="1.1 (c68e22c387, 2021-05-23)"
   xmlns:inkscape="http://www.inkscape.org/namespaces/inkscape"
   xmlns:sodipodi="http://sodipodi.sourceforge.net/DTD/sodipodi-0.dtd"
   xmlns="http://www.w3.org/2000/svg"
   xmlns:svg="http://www.w3.org/2000/svg">
  <defs
     id="defs839" />
  <sodipodi:namedview
     id="namedview837"
     pagecolor="#505050"
     bordercolor="#eeeeee"
     borderopacity="1"
     inkscape:pageshadow="0"
     inkscape:pageopacity="0"
     inkscape:pagecheckerboard="0"
     showgrid="false"
     inkscape:zoom="1.2042912"
     inkscape:cx="32.384193"
     inkscape:cy="150.71105"
     inkscape:window-width="1855"
     inkscape:window-height="1057"
     inkscape:window-x="57"
     inkscape:window-y="-8"
     inkscape:window-maximized="1"
     inkscape:current-layer="svg835" />
  <circle
     style="fill:#1a1a25;fill-opacity:1;stroke-width:1.86378"
     id="path1029"
     cx="100"
     cy="100"
     r="97.5" />
  <path
     id="path920"
     style="fill:#92257c;stroke-width:24.605"
     d="M 100,0 A 100,100 0 0 0 0,100 100,100 0 0 0 100,200 100,100 0 0 0 200,100 100,100 0 0 0 100,0 Z M 63.375,38.636719 a 13.390004,13.390004 0 0 1 9.738281,5.148437 l 13.767578,17.695313 c 2.524534,3.24583 3.413552,7.474697 2.416016,11.464843 L 85.099609,89.75 a 5.2025348,5.2025348 0 0 0 1.367188,4.933594 l 18.851563,18.853516 a 5.2025348,5.2025348 0 0 0 4.94336,1.36523 l 16.79687,-4.19726 a 13.390004,13.390004 0 0 1 11.46289,2.41797 l 17.69532,13.76562 c 6.36121,4.94932 6.94363,14.3492 1.25,20.03516 l -7.9336,7.93359 c -5.67827,5.67829 -14.16494,8.17215 -22.07617,5.38672 A 142.9853,142.9853 0 0 1 73.666016,126.32812 142.9853,142.9853 0 0 1 39.75,72.544922 C 36.972246,64.641366 39.466247,56.147032 45.144531,50.46875 l 7.935547,-7.933594 h -0.0078 A 13.390004,13.390004 0 0 1 63.375,38.636719 Z m -0.505859,8.167969 a 5.2025348,5.2025348 0 0 0 -4.003907,1.515624 l -7.935546,7.941407 c -3.70623,3.713903 -5.07025,8.970345 -3.451172,13.582031 a 134.8055,134.8055 0 0 0 31.982422,50.70703 134.81318,134.81318 0 0 0 50.705082,31.98242 c 4.61168,1.61908 9.86812,0.25311 13.58203,-3.45312 l 7.93359,-7.93555 a 5.2025348,5.2025348 0 0 0 -0.48242,-7.78711 L 133.49609,119.5918 a 5.2025348,5.2025348 0 0 0 -4.45117,-0.9375 l -16.80469,4.19726 A 13.390004,13.390004 0 0 1 99.525391,119.33008 L 80.679688,100.47656 A 13.390004,13.390004 0 0 1 77.150391,87.761719 L 81.355469,70.957031 A 5.2025348,5.2025348 0 0 0 80.419922,66.505859 L 66.652344,48.804688 a 5.2025348,5.2025348 0 0 0 -3.783203,-2 z" />
</svg>
