<?xml version="1.0" encoding="UTF-8" standalone="no"?>
<svg
   width="200"
   height="200"
   fill="currentColor"
   class="bi bi-envelope-paper-heart"
   viewBox="0 0 200 200"
   version="1.1"
   id="svg1180"
   sodipodi:docname="mandar-mail.svg"
   inkscape:version="1.1 (c68e22c387, 2021-05-23)"
   xmlns:inkscape="http://www.inkscape.org/namespaces/inkscape"
   xmlns:sodipodi="http://sodipodi.sourceforge.net/DTD/sodipodi-0.dtd"
   xmlns="http://www.w3.org/2000/svg"
   xmlns:svg="http://www.w3.org/2000/svg">
  <defs
     id="defs1184">
    <linearGradient
       id="linearGradient1451"
       inkscape:swatch="solid">
      <stop
         style="stop-color:#1a1a25;stop-opacity:1;"
         offset="0"
         id="stop1449" />
    </linearGradient>
  </defs>
  <sodipodi:namedview
     id="namedview1182"
     pagecolor="#505050"
     bordercolor="#eeeeee"
     borderopacity="1"
     inkscape:pageshadow="0"
     inkscape:pageopacity="0"
     inkscape:pagecheckerboard="0"
     showgrid="false"
     inkscape:zoom="1.28"
     inkscape:cx="324.21875"
     inkscape:cy="133.20312"
     inkscape:window-width="1855"
     inkscape:window-height="1057"
     inkscape:window-x="57"
     inkscape:window-y="-8"
     inkscape:window-maximized="1"
     inkscape:current-layer="svg1180" />
  <circle
     style="fill:#1a1a25;stroke-width:33.9564"
     id="path1265-5"
     cx="100"
     cy="100"
     r="100" />
  <path
     id="path1265"
     style="fill:#91267f;fill-opacity:1;stroke-width:33.9564"
     d="M 100,0 A 100,100 0 0 0 0,100 100,100 0 0 0 100,200 100,100 0 0 0 200,100 100,100 0 0 0 100,0 Z M 67.1875,30.375 h 65.625 a 16.40625,16.40625 0 0 1 16.40625,16.40625 v 9.294922 l 7.71875,4.117187 a 16.40625,16.40625 0 0 1 8.6875,14.478516 V 145.21875 A 16.40625,16.40625 0 0 1 149.21875,161.625 H 50.78125 A 16.40625,16.40625 0 0 1 34.375,145.21875 V 74.671875 a 16.40625,16.40625 0 0 1 8.6875,-14.478516 l 7.71875,-4.117187 V 46.78125 A 16.40625,16.40625 0 0 1 67.1875,30.375 Z m 0,8.203125 A 8.203125,8.203125 0 0 0 58.984375,46.78125 V 91.216797 L 89.746094,109.67383 100,103.52148 l 10.25391,6.15235 30.76172,-18.457033 V 46.78125 a 8.203125,8.203125 0 0 0 -8.20313,-8.203125 z m 41.97656,12.314453 C 123.57067,50.357422 138.82385,70.912793 100,96 52.216797,65.123438 86.35,41.120311 100,54.835938 c 2.55938,-2.573218 5.83946,-3.819862 9.16406,-3.94336 z m -58.38281,14.484375 -3.855469,2.050781 a 8.203125,8.203125 0 0 0 -4.347656,7.244141 v 6.701172 l 8.203125,4.921875 z m 98.4375,0 v 20.917969 l 8.20313,-4.921875 V 74.671875 A 8.203125,8.203125 0 0 0 153.07422,67.4375 Z M 42.578125,90.939453 V 137.9668 l 39.195313,-23.51758 z m 114.843755,0 -39.19532,23.517577 39.19532,23.51758 z M 100,113.07812 42.865234,147.36719 a 8.203125,8.203125 0 0 0 7.916016,6.05469 h 98.4375 a 8.203125,8.203125 0 0 0 7.91211,-6.04688 z" />
</svg>
