<?xml version="1.0" encoding="UTF-8" standalone="no"?>
<svg
   width="200"
   height="200"
   fill="currentColor"
   class="bi bi-geo-alt"
   viewBox="0 0 200 200"
   version="1.1"
   id="svg1567"
   sodipodi:docname="visitar.svg"
   inkscape:version="1.1 (c68e22c387, 2021-05-23)"
   xmlns:inkscape="http://www.inkscape.org/namespaces/inkscape"
   xmlns:sodipodi="http://sodipodi.sourceforge.net/DTD/sodipodi-0.dtd"
   xmlns="http://www.w3.org/2000/svg"
   xmlns:svg="http://www.w3.org/2000/svg">
  <defs
     id="defs1571" />
  <sodipodi:namedview
     id="namedview1569"
     pagecolor="#505050"
     bordercolor="#eeeeee"
     borderopacity="1"
     inkscape:pageshadow="0"
     inkscape:pageopacity="0"
     inkscape:pagecheckerboard="0"
     showgrid="false"
     inkscape:zoom="1.703125"
     inkscape:cx="123.30275"
     inkscape:cy="98.93578"
     inkscape:window-width="1855"
     inkscape:window-height="1057"
     inkscape:window-x="57"
     inkscape:window-y="-8"
     inkscape:window-maximized="1"
     inkscape:current-layer="svg1567" />
  <circle
     style="fill:#1a1a25;fill-opacity:1;stroke-width:1.37235"
     id="path1758"
     cx="100"
     cy="100"
     r="97.5" />
  <path
     id="path1652"
     style="fill:#91267f;stroke-width:47.0264"
     d="M 100,0 A 100,100 0 0 0 0,100 100,100 0 0 0 100,200 100,100 0 0 0 200,100 100,100 0 0 0 100,0 Z m 0,28.966797 a 53.275229,53.275229 0 0 1 53.27539,53.275391 C 153.27539,120.54708 100,171.0332 100,171.0332 c 0,0 -53.275391,-50.48612 -53.275391,-88.791012 A 53.275229,53.275229 0 0 1 100,28.966797 Z m 0,8.878906 A 44.396025,44.396025 0 0 0 55.603516,82.242188 c 0,7.653874 2.700271,16.572225 7.40625,26.099612 4.652703,9.42971 10.963853,18.82646 17.410156,27.26172 A 279.52625,279.52625 0 0 0 100,158.42578 279.6328,279.6328 0 0 0 119.58008,135.60352 c 6.44629,-8.43526 12.75745,-17.83201 17.41015,-27.26172 4.6971,-9.527387 7.40625,-18.445738 7.40625,-26.099612 A 44.396025,44.396025 0 0 0 100,37.845703 Z m 0,17.757813 a 26.637695,26.637695 0 0 1 0,53.275394 26.637695,26.637695 0 0 1 0,-53.275394 z m 0,8.878906 A 17.758789,17.758789 0 0 0 100,100 17.758789,17.758789 0 0 0 100,64.482422 Z" />
</svg>
